<svg xmlns="http://www.w3.org/2000/svg" version="1.1" xmlns:xlink="http://www.w3.org/1999/xlink" xmlns:svgjs="http://svgjs.dev/svgjs" width="1000" height="1000" viewBox="0 0 1000 1000"><rect width="1000" height="1000" fill="#ffffff"></rect><g transform="matrix(0.7,0,0,0.7,150,281.25)"><svg viewBox="0 0 576 360" data-background-color="#dedede" preserveAspectRatio="xMidYMid meet" height="625" width="1000" xmlns="http://www.w3.org/2000/svg" xmlns:xlink="http://www.w3.org/1999/xlink"><g id="tight-bounds" transform="matrix(1,0,0,1,0,0)"><svg viewBox="0 0 576 360" height="360" width="576"><g><svg></svg></g><g><svg viewBox="0 0 576 360" height="360" width="576"><g><path xmlns="http://www.w3.org/2000/svg" d="M132.115 90l155.885-90 155.885 90v180l-155.885 90-155.885-90zM135.986 267.765l152.014 87.765 152.014-87.765v-175.53l-152.014-87.765-152.014 87.765z" fill="#374151" fill-rule="nonzero" stroke="none" stroke-width="1" stroke-linecap="butt" stroke-linejoin="miter" stroke-miterlimit="10" stroke-dasharray="" stroke-dashoffset="0" font-family="none" font-weight="none" font-size="none" text-anchor="none" style="mix-blend-mode: normal" data-fill-palette-color="tertiary"></path></g><g transform="matrix(1,0,0,1,187.5881329309095,99)"><svg viewBox="0 0 200.823734138181 162" height="162" width="200.823734138181"><g><svg viewBox="0 0 200.823734138181 162" height="162" width="200.823734138181"><g><svg viewBox="0 0 230.4 185.85851000219867" height="162" width="200.823734138181"><g transform="matrix(1,0,0,1,0,112.7130411735326)"><svg viewBox="0 0 230.4 73.14546882866607" height="73.14546882866607" width="230.4"><g><svg viewBox="0 0 230.4 73.14546882866607" height="73.14546882866607" width="230.4"><g><svg viewBox="0 0 230.4 49.246866485013626" height="49.246866485013626" width="230.4"><g transform="matrix(1,0,0,1,0,0)"><svg width="230.4" viewBox="3.0999999046325684 -34.79999923706055 165.13999938964844 35.29999923706055" height="49.246866485013626" data-palette-color="#374151"><path d="M17.2-34.8Q21.2-34.8 24.18-33.25 27.15-31.7 28.75-28.85 30.35-26 30.35-22.25L30.35-22.25 25.45-22.25Q25.45-26.1 23.33-28.23 21.2-30.35 17.2-30.35L17.2-30.35Q12.7-30.35 10.35-27.58 8-24.8 8-19.4L8-19.4 8-14.9Q8-9.5 10.33-6.73 12.65-3.95 17.2-3.95L17.2-3.95Q21.55-3.95 23.55-6.13 25.55-8.3 25.55-13.05L25.55-13.05 25.55-13.7 15.85-13.7 15.85-18.1 30.35-18.1 30.35-6.4Q30.35-2.25 30.65 0L30.65 0 27.75 0Q27.1-2.05 26.75-4.1L26.75-4.1Q23.5 0.5 17.2 0.5L17.2 0.5Q10.55 0.5 6.83-3.58 3.1-7.65 3.1-14.9L3.1-14.9 3.1-19.4Q3.1-26.6 6.83-30.7 10.55-34.8 17.2-34.8L17.2-34.8ZM37.3-5.55L42.35-5.55 42.35 0 37.3 0 37.3-5.55ZM62.59-34.3L84.19-34.3 83.54-29.85 67.49-29.85 67.49-19.4 81.49-19.4 81.49-14.95 67.49-14.95 67.49 0 62.59 0 62.59-34.3ZM104.69-34.3Q109.24-34.3 112.17-32.15 115.09-30 115.09-26.25L115.09-26.25Q115.09-22.9 113.32-20.55 111.54-18.2 108.94-17.7L108.94-17.7 108.94-17.45Q111.34-16.5 112.89-14.15 114.44-11.8 114.44-8.5L114.44-8.5Q114.44-5.75 114.74-4.35 115.04-2.95 115.54-2.4 116.04-1.85 116.99-1.55L116.99-1.55 116.99-0.15Q115.89 0.3 114.64 0.3L114.64 0.3Q112.24 0.3 110.89-1.13 109.54-2.55 109.54-6.5L109.54-6.5Q109.54-10.55 107.87-12.83 106.19-15.1 103.69-15.1L103.69-15.1 94.99-15.1 94.99 0 90.09 0 90.09-34.3 104.69-34.3ZM104.74-29.85L94.99-29.85 94.99-19.55 104.74-19.55Q106.89-19.55 108.54-21 110.19-22.45 110.19-24.6L110.19-24.6 110.19-24.8Q110.19-27 108.69-28.43 107.19-29.85 104.74-29.85L104.74-29.85ZM121.64-34.3L134.54-34.3 134.54-29.85 130.54-29.85 130.54-4.45 134.54-4.45 134.54 0 121.64 0 121.64-4.45 125.64-4.45 125.64-29.85 121.64-29.85 121.64-34.3ZM167.13-34.25L155.78-18.05 168.24 0 162.34 0 152.84-13.8 143.09 0 137.63 0 150.13-17.75 138.78-34.25 144.69-34.25 153.09-22Q155.84-25.85 158.94-30.35L158.94-30.35 160.99-33.25 161.69-34.25 167.13-34.25Z" opacity="1" transform="matrix(1,0,0,1,0,0)" fill="#000000" class="undefined-text-0" data-fill-palette-color="primary" id="text-0"></path></svg></g></svg></g><g transform="matrix(1,0,0,1,0,60.87286973732971)"><svg viewBox="0 0 230.4 12.272599091336362" height="12.272599091336362" width="230.4"><g transform="matrix(1,0,0,1,0,0)"><svg width="230.4" viewBox="4.5 -33.400001525878906 638.2999877929688 34" height="12.272599091336362" data-palette-color="#374151"><path d="M12.9 0L4.5 0 4.5-32.8 12.7-32.8Q20.3-32.8 24.25-28.6 28.2-24.4 28.2-16.55L28.2-16.55Q28.2-12.65 27.2-9.58 26.2-6.5 24.25-4.38 22.3-2.25 19.45-1.13 16.6 0 12.9 0L12.9 0ZM8.65-29.4L8.65-3.4 12.4-3.4Q18.15-3.4 21.03-6.85 23.9-10.3 23.9-16.55L23.9-16.55Q23.9-22.8 21.03-26.1 18.15-29.4 12.4-29.4L12.4-29.4 8.65-29.4ZM54.65 0L35.25 0 35.25-32.8 54.15-32.8 54.15-29.3 39.4-29.3 39.4-19 51.85-19 51.85-15.45 39.4-15.45 39.4-3.55 54.65-3.55 54.65 0ZM65.35 0L61.6 0 61.6-32.8 66.6-32.8 72.9-15.3Q73.5-13.6 74.08-11.88 74.65-10.15 75.25-8.45L75.25-8.45 75.45-8.45Q76.05-10.15 76.58-11.88 77.1-13.6 77.7-15.3L77.7-15.3 83.9-32.8 88.95-32.8 88.95 0 85.05 0 85.05-18.05Q85.05-20.25 85.25-22.9 85.45-25.55 85.6-27.75L85.6-27.75 85.4-27.75 82.8-20.3 76.6-3.3 73.85-3.3 67.65-20.3 65.05-27.75 64.85-27.75Q65-25.55 65.18-22.9 65.35-20.25 65.35-18.05L65.35-18.05 65.35 0ZM110.05 0.6L110.05 0.6Q106.95 0.6 104.38-0.6 101.8-1.8 99.95-4.03 98.1-6.25 97.08-9.43 96.05-12.6 96.05-16.55L96.05-16.55Q96.05-20.5 97.08-23.63 98.1-26.75 99.95-28.93 101.8-31.1 104.38-32.25 106.95-33.4 110.05-33.4L110.05-33.4Q113.15-33.4 115.73-32.23 118.3-31.05 120.18-28.88 122.05-26.7 123.08-23.58 124.1-20.45 124.1-16.55L124.1-16.55Q124.1-12.6 123.08-9.43 122.05-6.25 120.18-4.03 118.3-1.8 115.73-0.6 113.15 0.6 110.05 0.6ZM110.05-3.05L110.05-3.05Q112.25-3.05 114.03-4 115.8-4.95 117.08-6.73 118.35-8.5 119.05-10.98 119.75-13.45 119.75-16.55L119.75-16.55Q119.75-19.6 119.05-22.05 118.35-24.5 117.08-26.2 115.8-27.9 114.03-28.83 112.25-29.75 110.05-29.75L110.05-29.75Q107.85-29.75 106.08-28.83 104.3-27.9 103.03-26.2 101.75-24.5 101.05-22.05 100.35-19.6 100.35-16.55L100.35-16.55Q100.35-13.45 101.05-10.98 101.75-8.5 103.03-6.73 104.3-4.95 106.08-4 107.85-3.05 110.05-3.05ZM146.8-18.35L146.8-18.35 145.25-13.35 155.1-13.35 153.55-18.35Q152.65-21.1 151.85-23.83 151.05-26.55 150.25-29.4L150.25-29.4 150.05-29.4Q149.3-26.55 148.5-23.83 147.7-21.1 146.8-18.35ZM141.05 0L136.8 0 147.9-32.8 152.6-32.8 163.7 0 159.25 0 156.15-10 144.2-10 141.05 0ZM172.5 0L168.35 0 168.35-32.8 177.7-32.8Q180.45-32.8 182.73-32.3 185-31.8 186.6-30.68 188.2-29.55 189.1-27.7 190-25.85 190-23.15L190-23.15Q190-20.55 189.13-18.65 188.25-16.75 186.65-15.5 185.05-14.25 182.83-13.63 180.6-13 177.9-13L177.9-13 172.5-13 172.5 0ZM172.5-29.45L172.5-16.4 177.4-16.4Q181.7-16.4 183.78-18.03 185.85-19.65 185.85-23.15L185.85-23.15Q185.85-26.7 183.68-28.08 181.5-29.45 177.2-29.45L177.2-29.45 172.5-29.45ZM200.8 0L196.65 0 196.65-32.8 206-32.8Q208.75-32.8 211.03-32.3 213.3-31.8 214.9-30.68 216.5-29.55 217.4-27.7 218.3-25.85 218.3-23.15L218.3-23.15Q218.3-20.55 217.43-18.65 216.55-16.75 214.95-15.5 213.35-14.25 211.13-13.63 208.9-13 206.2-13L206.2-13 200.8-13 200.8 0ZM200.8-29.45L200.8-16.4 205.7-16.4Q210-16.4 212.08-18.03 214.15-19.65 214.15-23.15L214.15-23.15Q214.15-26.7 211.98-28.08 209.8-29.45 205.5-29.45L205.5-29.45 200.8-29.45ZM238.7 0L234.95 0 234.95-32.8 239.95-32.8 246.25-15.3Q246.85-13.6 247.43-11.88 248-10.15 248.6-8.45L248.6-8.45 248.8-8.45Q249.4-10.15 249.93-11.88 250.45-13.6 251.05-15.3L251.05-15.3 257.25-32.8 262.3-32.8 262.3 0 258.4 0 258.4-18.05Q258.4-20.25 258.6-22.9 258.8-25.55 258.95-27.75L258.95-27.75 258.75-27.75 256.15-20.3 249.95-3.3 247.2-3.3 241-20.3 238.4-27.75 238.2-27.75Q238.35-25.55 238.53-22.9 238.7-20.25 238.7-18.05L238.7-18.05 238.7 0ZM283.4 0.6L283.4 0.6Q280.3 0.6 277.73-0.6 275.15-1.8 273.3-4.03 271.45-6.25 270.43-9.43 269.4-12.6 269.4-16.55L269.4-16.55Q269.4-20.5 270.43-23.63 271.45-26.75 273.3-28.93 275.15-31.1 277.73-32.25 280.3-33.4 283.4-33.4L283.4-33.4Q286.5-33.4 289.08-32.23 291.65-31.05 293.53-28.88 295.4-26.7 296.43-23.58 297.45-20.45 297.45-16.55L297.45-16.55Q297.45-12.6 296.43-9.43 295.4-6.25 293.53-4.03 291.65-1.8 289.08-0.6 286.5 0.6 283.4 0.6ZM283.4-3.05L283.4-3.05Q285.6-3.05 287.38-4 289.15-4.95 290.43-6.73 291.7-8.5 292.4-10.98 293.1-13.45 293.1-16.55L293.1-16.55Q293.1-19.6 292.4-22.05 291.7-24.5 290.43-26.2 289.15-27.9 287.38-28.83 285.6-29.75 283.4-29.75L283.4-29.75Q281.2-29.75 279.43-28.83 277.65-27.9 276.38-26.2 275.1-24.5 274.4-22.05 273.7-19.6 273.7-16.55L273.7-16.55Q273.7-13.45 274.4-10.98 275.1-8.5 276.38-6.73 277.65-4.95 279.43-4 281.2-3.05 283.4-3.05ZM308.45 0L304.5 0 304.5-32.8 308.8-32.8 320.65-12.2 324.2-5.4 324.4-5.4Q324.25-7.9 324.08-10.58 323.9-13.25 323.9-15.85L323.9-15.85 323.9-32.8 327.85-32.8 327.85 0 323.55 0 311.65-20.65 308.1-27.4 307.9-27.4Q308.1-24.9 308.28-22.33 308.45-19.75 308.45-17.15L308.45-17.15 308.45 0ZM348.95 0.6L348.95 0.6Q345.85 0.6 343.28-0.6 340.7-1.8 338.85-4.03 337-6.25 335.98-9.43 334.95-12.6 334.95-16.55L334.95-16.55Q334.95-20.5 335.98-23.63 337-26.75 338.85-28.93 340.7-31.1 343.28-32.25 345.85-33.4 348.95-33.4L348.95-33.4Q352.05-33.4 354.63-32.23 357.2-31.05 359.08-28.88 360.95-26.7 361.98-23.58 363-20.45 363-16.55L363-16.55Q363-12.6 361.98-9.43 360.95-6.25 359.08-4.03 357.2-1.8 354.63-0.6 352.05 0.6 348.95 0.6ZM348.95-3.05L348.95-3.05Q351.15-3.05 352.93-4 354.7-4.95 355.98-6.73 357.25-8.5 357.95-10.98 358.65-13.45 358.65-16.55L358.65-16.55Q358.65-19.6 357.95-22.05 357.25-24.5 355.98-26.2 354.7-27.9 352.93-28.83 351.15-29.75 348.95-29.75L348.95-29.75Q346.75-29.75 344.98-28.83 343.2-27.9 341.93-26.2 340.65-24.5 339.95-22.05 339.25-19.6 339.25-16.55L339.25-16.55Q339.25-13.45 339.95-10.98 340.65-8.5 341.93-6.73 343.2-4.95 344.98-4 346.75-3.05 348.95-3.05ZM384.2 0L380.05 0 380.05-32.8 390.3-32.8Q392.8-32.8 394.93-32.33 397.05-31.85 398.58-30.75 400.1-29.65 400.95-27.9 401.8-26.15 401.8-23.6L401.8-23.6Q401.8-19.75 399.8-17.45 397.8-15.15 394.4-14.3L394.4-14.3 402.75 0 398.05 0 390.15-13.85 384.2-13.85 384.2 0ZM384.2-29.45L384.2-17.25 389.7-17.25Q393.55-17.25 395.6-18.82 397.65-20.4 397.65-23.6L397.65-23.6Q397.65-26.85 395.6-28.15 393.55-29.45 389.7-29.45L389.7-29.45 384.2-29.45ZM427.9 0L408.5 0 408.5-32.8 427.4-32.8 427.4-29.3 412.65-29.3 412.65-19 425.1-19 425.1-15.45 412.65-15.45 412.65-3.55 427.9-3.55 427.9 0ZM439 0L434.85 0 434.85-32.8 444.2-32.8Q446.95-32.8 449.23-32.3 451.5-31.8 453.1-30.68 454.7-29.55 455.6-27.7 456.5-25.85 456.5-23.15L456.5-23.15Q456.5-20.55 455.63-18.65 454.75-16.75 453.15-15.5 451.55-14.25 449.33-13.63 447.1-13 444.4-13L444.4-13 439-13 439 0ZM439-29.45L439-16.4 443.9-16.4Q448.2-16.4 450.28-18.03 452.35-19.65 452.35-23.15L452.35-23.15Q452.35-26.7 450.18-28.08 448-29.45 443.7-29.45L443.7-29.45 439-29.45ZM475.25 0.6L475.25 0.6Q472.15 0.6 469.58-0.6 467-1.8 465.15-4.03 463.3-6.25 462.28-9.43 461.25-12.6 461.25-16.55L461.25-16.55Q461.25-20.5 462.28-23.63 463.3-26.75 465.15-28.93 467-31.1 469.58-32.25 472.15-33.4 475.25-33.4L475.25-33.4Q478.35-33.4 480.93-32.23 483.5-31.05 485.38-28.88 487.25-26.7 488.28-23.58 489.3-20.45 489.3-16.55L489.3-16.55Q489.3-12.6 488.28-9.43 487.25-6.25 485.38-4.03 483.5-1.8 480.93-0.6 478.35 0.6 475.25 0.6ZM475.25-3.05L475.25-3.05Q477.45-3.05 479.23-4 481-4.95 482.28-6.73 483.55-8.5 484.25-10.98 484.95-13.45 484.95-16.55L484.95-16.55Q484.95-19.6 484.25-22.05 483.55-24.5 482.28-26.2 481-27.9 479.23-28.83 477.45-29.75 475.25-29.75L475.25-29.75Q473.05-29.75 471.28-28.83 469.5-27.9 468.23-26.2 466.95-24.5 466.25-22.05 465.55-19.6 465.55-16.55L465.55-16.55Q465.55-13.45 466.25-10.98 466.95-8.5 468.23-6.73 469.5-4.95 471.28-4 473.05-3.05 475.25-3.05ZM505.45 0.6L505.45 0.6Q502 0.6 499.05-0.7 496.1-2 493.95-4.25L493.95-4.25 496.45-7.15Q498.2-5.3 500.58-4.17 502.95-3.05 505.5-3.05L505.5-3.05Q508.75-3.05 510.55-4.53 512.35-6 512.35-8.4L512.35-8.4Q512.35-9.65 511.93-10.53 511.5-11.4 510.78-12.03 510.05-12.65 509.05-13.15 508.05-13.65 506.9-14.2L506.9-14.2 502.2-16.25Q501.05-16.75 499.85-17.45 498.65-18.15 497.7-19.15 496.75-20.15 496.15-21.53 495.55-22.9 495.55-24.7L495.55-24.7Q495.55-26.55 496.33-28.15 497.1-29.75 498.48-30.93 499.85-32.1 501.73-32.75 503.6-33.4 505.85-33.4L505.85-33.4Q508.8-33.4 511.3-32.27 513.8-31.15 515.55-29.35L515.55-29.35 513.3-26.65Q511.8-28.1 509.98-28.93 508.15-29.75 505.85-29.75L505.85-29.75Q503.1-29.75 501.43-28.48 499.75-27.2 499.75-24.95L499.75-24.95Q499.75-23.75 500.23-22.93 500.7-22.1 501.5-21.48 502.3-20.85 503.25-20.38 504.2-19.9 505.2-19.5L505.2-19.5 509.85-17.5Q511.25-16.9 512.5-16.13 513.75-15.35 514.65-14.33 515.55-13.3 516.08-11.93 516.6-10.55 516.6-8.75L516.6-8.75Q516.6-6.8 515.83-5.1 515.05-3.4 513.6-2.13 512.15-0.85 510.1-0.13 508.05 0.6 505.45 0.6ZM527.2 0L523.05 0 523.05-32.8 527.2-32.8 527.2 0ZM547.2 0L543 0 543-29.3 533.1-29.3 533.1-32.8 557.1-32.8 557.1-29.3 547.2-29.3 547.2 0ZM573.9 0.6L573.9 0.6Q570.8 0.6 568.22-0.6 565.65-1.8 563.8-4.03 561.95-6.25 560.92-9.43 559.9-12.6 559.9-16.55L559.9-16.55Q559.9-20.5 560.92-23.63 561.95-26.75 563.8-28.93 565.65-31.1 568.22-32.25 570.8-33.4 573.9-33.4L573.9-33.4Q577-33.4 579.57-32.23 582.15-31.05 584.02-28.88 585.9-26.7 586.92-23.58 587.95-20.45 587.95-16.55L587.95-16.55Q587.95-12.6 586.92-9.43 585.9-6.25 584.02-4.03 582.15-1.8 579.57-0.6 577 0.6 573.9 0.6ZM573.9-3.05L573.9-3.05Q576.1-3.05 577.88-4 579.65-4.95 580.92-6.73 582.2-8.5 582.9-10.98 583.6-13.45 583.6-16.55L583.6-16.55Q583.6-19.6 582.9-22.05 582.2-24.5 580.92-26.2 579.65-27.9 577.88-28.83 576.1-29.75 573.9-29.75L573.9-29.75Q571.7-29.75 569.92-28.83 568.15-27.9 566.88-26.2 565.6-24.5 564.9-22.05 564.2-19.6 564.2-16.55L564.2-16.55Q564.2-13.45 564.9-10.98 565.6-8.5 566.88-6.73 568.15-4.95 569.92-4 571.7-3.05 573.9-3.05ZM599.15 0L595 0 595-32.8 605.25-32.8Q607.75-32.8 609.88-32.33 612-31.85 613.52-30.75 615.05-29.65 615.9-27.9 616.75-26.15 616.75-23.6L616.75-23.6Q616.75-19.75 614.75-17.45 612.75-15.15 609.35-14.3L609.35-14.3 617.7 0 613 0 605.1-13.85 599.15-13.85 599.15 0ZM599.15-29.45L599.15-17.25 604.65-17.25Q608.5-17.25 610.55-18.82 612.6-20.4 612.6-23.6L612.6-23.6Q612.6-26.85 610.55-28.15 608.5-29.45 604.65-29.45L604.65-29.45 599.15-29.45ZM632.95 0L628.75 0 628.75-12.7 618.9-32.8 623.35-32.8 627.6-23.55Q628.4-21.75 629.15-20 629.9-18.25 630.75-16.4L630.75-16.4 630.95-16.4Q631.8-18.25 632.65-20 633.5-21.75 634.25-23.55L634.25-23.55 638.45-32.8 642.8-32.8 632.95-12.7 632.95 0Z" opacity="1" transform="matrix(1,0,0,1,0,0)" fill="#000000" class="undefined-text-1" data-fill-palette-color="secondary" id="text-1"></path></svg></g></svg></g></svg></g></svg></g><g transform="matrix(1,0,0,1,57.82982793942852,0)"><svg viewBox="0 0 114.74034412114297 101.08703792121652" height="101.08703792121652" width="114.74034412114297"><g><svg xmlns="http://www.w3.org/2000/svg" xmlns:xlink="http://www.w3.org/1999/xlink" version="1.1" x="0" y="0" viewBox="6.300000190734863 11.5 87.39999389648438 77" style="enable-background:new 0 0 100 100;" xml:space="preserve" height="101.08703792121652" width="114.74034412114297" class="icon-icon-0" data-fill-palette-color="accent" id="icon-0"><path d="M72.3 12.3L72.3 12.3 72.3 12.3l-0.4-0.8H28.2L6.3 50l21.8 38.5h43.7L93.7 50 72.3 12.3zM33.3 25.3L9.9 47.7l18.6-32.8L33.3 25.3zM70.7 14.8l6.4 35.7L36.9 25.8 70.7 14.8zM35.5 27.3l41 25.2-41 23.3V27.3zM77 54.5l-7.2 30.8-32.6-8.1L77 54.5zM33.5 75L9.9 50.5l23.6-22.7V75zM33.2 77.6l-4.6 7.7L11.5 55.1 33.2 77.6zM35 78.6l31.4 7.9H30.2L35 78.6zM79.3 53.3l11.6-2.5L72.1 84 79.3 53.3zM90.7 48.9l-11.4 2.5-5.9-33.1L90.7 48.9zM35 24.3l-5-10.8h38.2L35 24.3z" fill="#000000" data-fill-palette-color="accent"></path></svg></g></svg></g><g></g></svg></g></svg></g></svg></g></svg></g><defs></defs></svg><rect width="576" height="360" fill="none" stroke="none" visibility="hidden"></rect></g></svg></g></svg>